<?xml version="1.0" encoding="utf-8"?>
<!-- Generator: Adobe Illustrator 24.3.0, SVG Export Plug-In . SVG Version: 6.00 Build 0)  -->
<svg version="1.1" id="Layer_1" xmlns="http://www.w3.org/2000/svg" xmlns:xlink="http://www.w3.org/1999/xlink" x="0px" y="0px"
	 viewBox="0 0 164 164" style="enable-background:new 0 0 164 164;" xml:space="preserve">
<style type="text/css">
	.st0{clip-path:url(#SVGID_2_);}
	.st1{fill:#DFC7F9;stroke:#2F2B24;stroke-width:2;stroke-linejoin:bevel;}
	.st2{fill:none;stroke:#2F2B24;stroke-width:2;stroke-linejoin:bevel;}
	.st3{fill:none;stroke:#2F2B23;stroke-width:2;stroke-linecap:round;stroke-linejoin:round;}
	.st4{fill:none;stroke:#2F2B23;stroke-width:2;stroke-linejoin:round;}
</style>
<g>
	<defs>
		<rect id="SVGID_1_" y="0" width="164" height="164"/>
	</defs>
	<clipPath id="SVGID_2_">
		<use xlink:href="#SVGID_1_"  style="overflow:visible;"/>
	</clipPath>
	<g class="st0">
		<path class="st1" d="M95.3,47.2l59.3,72l-92,15.4l-59.3-72L95.3,47.2z"/>
		<g>
			<g>
				<image style="overflow:visible;" width="190" height="140" xlink:href="8399C22E.png"  transform="matrix(1 0 0 1 -15 18)">
				</image>
			</g>
		</g>
		<path class="st1" d="M103.5,25.3l59.3,72l-92,15.4l-59.3-72L103.5,25.3z"/>
		<path class="st2" d="M162.2,97l-8.2,21.8"/>
		<path class="st2" d="M70.9,112.6l-8.2,21.8"/>
		<path class="st2" d="M12,41L3.8,62.8"/>
		<path class="st3" d="M75.4,45.5l-21,3.5c-3.2,0.5-4.1,3-2.1,5.5l27.8,33.8c2.1,2.5,6.3,4.1,9.5,3.6l31.8-5.3
			c3.2-0.5,4.1-3,2.1-5.5l-20.8-25.3L75.4,45.5z"/>
		<path class="st3" d="M75.4,45.5l8.8,10.7c1.1,1.3,3.2,2.1,4.8,1.8l13.7-2.3"/>
		<path class="st4" d="M101.9,71.8c3.3,4,1.8,8-3.3,8.9c-5.2,0.9-12.1-1.7-15.4-5.8c-3.3-4-1.9-8,3.3-8.9
			C91.7,65.2,98.6,67.8,101.9,71.8z"/>
		<path class="st4" d="M103.8,77.6l8.3,3.1"/>
	</g>
</g>
</svg>
