<?xml version="1.0" encoding="utf-8"?>
<!-- Generator: Adobe Illustrator 24.3.0, SVG Export Plug-In . SVG Version: 6.00 Build 0)  -->
<svg version="1.1" id="Layer_1" xmlns="http://www.w3.org/2000/svg" xmlns:xlink="http://www.w3.org/1999/xlink" x="0px" y="0px"
	 viewBox="0 0 212 212" style="enable-background:new 0 0 212 212;" xml:space="preserve">
<style type="text/css">
	.st0{fill:#DFC7F9;stroke:#2F2B24;stroke-width:2;stroke-linejoin:bevel;}
	.st1{fill:none;stroke:#2F2B24;stroke-width:2;stroke-linejoin:bevel;}
	.st2{fill:none;stroke:#2F2B23;stroke-width:2;stroke-linecap:square;}
</style>
<path class="st0" d="M105.6,63L6,120.6l99.6,57.7l99.6-57.7L105.6,63z"/>
<g>
	<image style="overflow:visible;" width="228" height="162" xlink:href="3DA8167A.png"  transform="matrix(1 0 0 1 -8 36)">
	</image>
</g>
<path class="st0" d="M105.6,34L6,91.7l99.6,57.7l99.6-57.7L105.6,34z"/>
<path class="st1" d="M6.8,91.7v28.8"/>
<path class="st1" d="M105.6,149.3v28.8"/>
<path class="st1" d="M204.5,91.8v28.8"/>
<path class="st2" d="M109.1,64.2L58.5,93.3 M154,90.1l-50.5,29.2 M90.2,92.1l-16.9,9.7 M105.6,101l-16.9,9.7 M124.8,94l13.5-7.8
	c1.6-0.9,2.4-1.4,2.7-1.9c0.3-0.5,0.3-1,0-1.4c-0.3-0.5-1.1-1-2.7-1.9l-13.5-7.8c-1.6-0.9-2.4-1.4-3.3-1.5c-0.8-0.2-1.7-0.2-2.5,0
	c-0.9,0.2-1.7,0.6-3.3,1.5L102.3,81c-1.6,0.9-2.4,1.4-2.7,1.9c-0.3,0.5-0.3,1,0,1.4c0.3,0.5,1.1,1,2.7,1.9l13.5,7.8
	c1.6,0.9,2.4,1.4,3.3,1.5c0.8,0.2,1.7,0.2,2.5,0C122.4,95.3,123.2,94.9,124.8,94z"/>
<path d="M110,126.5L52,93v-3l58,33.5V126.5z"/>
<path d="M118,108L86,89.6V88l32,18.4V108z"/>
<path d="M116,68L91,53.3V52l25,14.7V68z"/>
<path d="M173,101l-25-14.7V85l25,14.7V101z"/>
</svg>
