<?xml version="1.0" encoding="utf-8"?>
<!-- Generator: Adobe Illustrator 24.3.0, SVG Export Plug-In . SVG Version: 6.00 Build 0)  -->
<svg version="1.1" id="Layer_1" xmlns="http://www.w3.org/2000/svg" xmlns:xlink="http://www.w3.org/1999/xlink" x="0px" y="0px"
	 viewBox="0 0 279 279" style="enable-background:new 0 0 279 279;" xml:space="preserve">
<style type="text/css">
	.st0{clip-path:url(#SVGID_2_);}
	.st1{clip-path:url(#SVGID_4_);}
	.st2{fill:#DFC7F9;stroke:#2F2B24;stroke-width:2.5;stroke-linejoin:bevel;}
	.st3{fill:none;stroke:#2F2B24;stroke-width:2.5;stroke-linejoin:bevel;}
</style>
<g>
	<defs>
		<rect id="SVGID_1_" y="0" width="279" height="279"/>
	</defs>
	<clipPath id="SVGID_2_">
		<use xlink:href="#SVGID_1_"  style="overflow:visible;"/>
	</clipPath>
	<g class="st0">
		<g>
			<defs>
				
					<rect id="SVGID_3_" x="41" y="-1.1" transform="matrix(0.1239 -0.9923 0.9923 0.1239 -11.0002 254.3588)" width="195" height="269"/>
			</defs>
			<clipPath id="SVGID_4_">
				<use xlink:href="#SVGID_3_"  style="overflow:visible;"/>
			</clipPath>
			<g class="st1">
				<path class="st2" d="M145.7,75.8L269,169.3l-142.5,60.4L3.2,136.2L145.7,75.8z"/>
				<g>
					<g>
						<image style="overflow:visible;" width="280" height="192" xlink:href="C912FFFE.png"  transform="matrix(1 0 0 1 -3 52)">
						</image>
					</g>
				</g>
				<path class="st2" d="M150.6,37.1l123.3,93.5L131.4,191L8,97.5L150.6,37.1z"/>
				<path class="st3" d="M273.9,130.7l-4.8,38.5"/>
				<path class="st3" d="M131.4,191l-4.8,38.5"/>
				<path class="st3" d="M8,97.7l-4.8,38.5"/>
				<path class="st3" d="M168.4,106.6l13,12.3c0.9,0.8,0.7,2.3-0.5,2.9l-6.8,3.2c-1.9,0.9-4.2,0.6-5.9-0.8l-11.5-9.9"/>
				<path class="st3" d="M138,127.1l31.5-20.6c2.4-1.6,2.5-5,0.3-6.7l-4.7-3.7c-4.4-3.5-10.3-4.7-15.8-3.2l-38.8,10.8"/>
				<path class="st3" d="M119.4,122.5c-8.8-5.6-14-13.2-11.6-17s11.5-2.4,20.3,3.2c8.8,5.6,14,13.2,11.6,17S128.2,128,119.4,122.5z"
					/>
			</g>
		</g>
	</g>
</g>
</svg>
