<?xml version="1.0" encoding="utf-8"?>
<!-- Generator: Adobe Illustrator 24.3.0, SVG Export Plug-In . SVG Version: 6.00 Build 0)  -->
<svg version="1.1" id="Layer_1" xmlns="http://www.w3.org/2000/svg" xmlns:xlink="http://www.w3.org/1999/xlink" x="0px" y="0px"
	 viewBox="0 0 127 127" style="enable-background:new 0 0 127 127;" xml:space="preserve">
<style type="text/css">
	.st0{clip-path:url(#SVGID_2_);}
	.st1{clip-path:url(#SVGID_4_);}
	.st2{fill:#F5F0FC;stroke:#2F2B24;stroke-width:1.5;stroke-linejoin:bevel;}
	.st3{fill:#DFC7F9;stroke:#2F2B24;stroke-width:1.5;stroke-linejoin:bevel;}
	.st4{fill:none;stroke:#2F2B24;stroke-width:1.5;stroke-linejoin:bevel;}
	.st5{fill:none;stroke:#2F2B24;stroke-width:1.5;stroke-linecap:square;stroke-linejoin:bevel;}
</style>
<g>
	<defs>
		<rect id="SVGID_1_" y="0" width="127" height="127"/>
	</defs>
	<clipPath id="SVGID_2_">
		<use xlink:href="#SVGID_1_"  style="overflow:visible;"/>
	</clipPath>
	<g class="st0">
		<g>
			<defs>
				
					<rect id="SVGID_3_" x="2.2" y="14.1" transform="matrix(0.9659 -0.2588 0.2588 0.9659 -12.774 18.0962)" width="120.3" height="87"/>
			</defs>
			<clipPath id="SVGID_4_">
				<use xlink:href="#SVGID_3_"  style="overflow:visible;"/>
			</clipPath>
			<g class="st1">
				<path class="st2" d="M55.6,32.6L6.7,81.5l66.8,17.9l48.9-48.9L55.6,32.6z"/>
				<g>
					<g>
						<image style="overflow:visible;" width="163" height="125" xlink:href="83215449.png"  transform="matrix(1 0 0 1 -17 1)">
						</image>
					</g>
				</g>
				<path class="st3" d="M51.1,15.8L2.2,64.7L69,82.6l48.9-48.9L51.1,15.8z"/>
				<path class="st4" d="M2.2,64.7l4.5,16.7"/>
				<path class="st4" d="M69,82.6l4.5,16.7"/>
				<path class="st4" d="M118,33.8l4.5,16.7"/>
				<path class="st5" d="M59.4,59.7l-18.4-5c-1.2-0.3-1.7-1.9-0.7-2.8l10.4-10.4c1.1-1.1,2.7-1.6,4.3-1.2l19.3,5.1
					c1.1,0.3,1.5,1.6,0.7,2.4L64.6,58.3C63.2,59.7,61.3,60.2,59.4,59.7L59.4,59.7z"/>
				<path class="st5" d="M57.3,40.8l3-3c3.5-3.5,8.3-4.6,13.1-3.4c3.1,0.8,4.4,4.6,2.1,6.9l-3.4,3.4"/>
				<path class="st5" d="M56.2,51.2l2.4-2.4"/>
			</g>
		</g>
	</g>
</g>
</svg>
