<?xml version="1.0" encoding="utf-8"?>
<!-- Generator: Adobe Illustrator 24.3.0, SVG Export Plug-In . SVG Version: 6.00 Build 0)  -->
<svg version="1.1" id="Layer_1" xmlns="http://www.w3.org/2000/svg" xmlns:xlink="http://www.w3.org/1999/xlink" x="0px" y="0px"
	 viewBox="0 0 128 128" style="enable-background:new 0 0 128 128;" xml:space="preserve">
<style type="text/css">
	.st0{clip-path:url(#SVGID_2_);}
	.st1{fill:#DFC7F9;stroke:#2F2B24;stroke-width:2;stroke-linejoin:bevel;}
	.st2{fill:none;stroke:#2F2B24;stroke-width:2;stroke-linejoin:bevel;}
	.st3{fill:none;stroke:#2F2B23;stroke-width:2;stroke-linecap:round;}
</style>
<g>
	<defs>
		<rect id="SVGID_1_" y="0" width="128" height="128"/>
	</defs>
	<clipPath id="SVGID_2_">
		<use xlink:href="#SVGID_1_"  style="overflow:visible;"/>
	</clipPath>
	<g class="st0">
		<path class="st1" d="M43.4,46.2l-8.2,74.2l68.3-30l8.2-74.2L43.4,46.2z"/>
		<g>
			<image style="overflow:visible;" width="133" height="154" xlink:href="3D2FA890.png"  transform="matrix(1 0 0 1 5 -10)">
			</image>
		</g>
		<path class="st1" d="M28.3,35.1l-8.2,74.2l68.3-30l8.2-74.2L28.3,35.1z"/>
		<path class="st2" d="M20.4,108.9l15,11"/>
		<path class="st2" d="M88.4,79.3l15,11"/>
		<path class="st2" d="M96.5,5.5l15,11.1"/>
		<path class="st3" d="M58.9,41c3.4,2.9,4.9,8,4.4,14.2c-0.8,6.3-3.7,13.3-8.1,19.6 M58.9,41c-4.4,6.3-7.3,13.3-8.1,19.6
			c-0.6,6.2,1,11.3,4.4,14.2 M58.9,41c-8.6,3.8-16.4,14.4-17.4,23.7c-1,9.3,5.1,13.8,13.7,10.1 M58.9,41c8.6-3.8,14.7,0.7,13.7,10.1
			c-1,9.3-8.8,20-17.4,23.7"/>
		<path class="st3" d="M42.2,64.4l29.6-13"/>
	</g>
</g>
</svg>
