<?xml version="1.0" encoding="utf-8"?>
<!-- Generator: Adobe Illustrator 24.3.0, SVG Export Plug-In . SVG Version: 6.00 Build 0)  -->
<svg version="1.1" id="Layer_1" xmlns="http://www.w3.org/2000/svg" xmlns:xlink="http://www.w3.org/1999/xlink" x="0px" y="0px"
	 viewBox="0 0 128 128" style="enable-background:new 0 0 128 128;" xml:space="preserve">
<style type="text/css">
	.st0{clip-path:url(#SVGID_2_);}
	.st1{fill:#DFC7F9;stroke:#2F2B24;stroke-width:2;stroke-linejoin:bevel;}
	.st2{fill:none;stroke:#2F2B24;stroke-width:2;stroke-linejoin:bevel;}
	.st3{fill:none;stroke:#2F2B23;stroke-width:2;stroke-linecap:square;stroke-linejoin:bevel;}
</style>
<g>
	<defs>
		<rect id="SVGID_1_" y="0" width="128" height="128"/>
	</defs>
	<clipPath id="SVGID_2_">
		<use xlink:href="#SVGID_1_"  style="overflow:visible;"/>
	</clipPath>
	<g class="st0">
		<path class="st1" d="M88.4,46.2l8.2,74.2l-68.3-30l-8.2-74.2L88.4,46.2z"/>
		<g>
			<g>
				<image style="overflow:visible;" width="133" height="154" xlink:href="B14C5122.png"  transform="matrix(1 0 0 1 -6 -10)">
				</image>
			</g>
		</g>
		<path class="st1" d="M103.5,35.1l8.2,74.2l-68.3-30L35.2,5.1L103.5,35.1z"/>
		<path class="st2" d="M111.4,108.9l-15,11"/>
		<path class="st2" d="M43.4,79.3l-15,11"/>
		<path class="st2" d="M35.4,5.5l-15,11.1"/>
		<path class="st3" d="M76.9,72.8l-2.2-19.6 M76.9,72.8l0.2-0.1c1-0.8,1.5-1.1,2.2-1.3c0.5-0.1,1.2-0.2,1.9,0
			c0.8,0.1,1.6,0.5,3.3,1.2l3.7,1.6c1.9,0.8,2.9,1.2,3.5,1.2c0.6-0.1,1.1-0.4,1.3-1c0.3-0.6,0.2-1.7-0.1-3.7l-1.8-15.9
			c-0.2-2.1-0.3-3.1-0.8-4.1c-0.4-0.8-1-1.6-1.7-2.3c-0.8-0.7-1.7-1.1-3.7-2l-0.7-0.3c-3.8-1.7-5.7-2.5-7.1-2.4
			c-1.2,0.1-2.1,0.8-2.6,1.9c-0.6,1.3-0.3,3.3,0.1,7.5 M76.9,72.8l-0.2-0.3c-1.3-1.8-2-2.7-2.7-3.5c-0.6-0.7-1.3-1.3-2.1-1.7
			c-0.8-0.5-1.6-0.9-3.3-1.7L64.9,64c-1.9-0.8-2.9-1.2-3.6-2c-0.7-0.6-1.3-1.4-1.7-2.3c-0.5-0.9-0.6-2-0.8-4.1L57,39.8
			c-0.2-2.1-0.3-3.1-0.1-3.7c0.2-0.5,0.7-0.9,1.3-1c0.7-0.1,1.6,0.3,3.5,1.2l0.7,0.3c3.8,1.7,5.7,2.5,7.3,4c1.3,1.3,2.5,2.9,3.3,4.5
			c0.9,1.9,1.1,4,1.6,8.1"/>
	</g>
</g>
</svg>
