<?xml version="1.0" encoding="utf-8"?>
<!-- Generator: Adobe Illustrator 24.3.0, SVG Export Plug-In . SVG Version: 6.00 Build 0)  -->
<svg version="1.1" id="Layer_1" xmlns="http://www.w3.org/2000/svg" xmlns:xlink="http://www.w3.org/1999/xlink" x="0px" y="0px"
	 viewBox="0 0 128 128" style="enable-background:new 0 0 128 128;" xml:space="preserve">
<style type="text/css">
	.st0{clip-path:url(#SVGID_2_);}
	.st1{fill:#DFC7F9;stroke:#2F2B24;stroke-width:2;stroke-linejoin:bevel;}
	.st2{fill:none;stroke:#2F2B24;stroke-width:2;stroke-linejoin:bevel;}
	.st3{fill:none;stroke:#2F2B23;stroke-width:2;stroke-linecap:round;}
</style>
<g>
	<defs>
		<rect id="SVGID_1_" y="0" width="128" height="128"/>
	</defs>
	<clipPath id="SVGID_2_">
		<use xlink:href="#SVGID_1_"  style="overflow:visible;"/>
	</clipPath>
	<g class="st0">
		<path class="st1" d="M88.4,46.2l8.2,74.2l-68.3-30l-8.2-74.2L88.4,46.2z"/>
		<g>
			<image style="overflow:visible;" width="133" height="154" xlink:href="6B5AA56D.png"  transform="matrix(1 0 0 1 -6 -10)">
			</image>
		</g>
		<path class="st1" d="M103.5,35.1l8.2,74.2l-68.3-30L35.2,5.1L103.5,35.1z"/>
		<path class="st2" d="M111.4,108.9l-15,11"/>
		<path class="st2" d="M43.4,79.3l-15,11"/>
		<path class="st2" d="M35.4,5.5l-15,11.1"/>
		<path class="st3" d="M77.5,74.7c-4.7-6.8-7.8-14.2-8.7-21c-0.6-6.6,1-12,4.7-15.2 M77.5,74.7c3.6-3.1,5.3-8.5,4.7-15.2
			c-0.9-6.8-4-14.2-8.7-21 M77.5,74.7c9.2,4,15.8-0.8,14.7-10.8c-1.1-10-9.5-21.3-18.6-25.4 M77.5,74.7c-9.2-4-17.5-15.4-18.6-25.4
			c-1.1-10,5.5-14.8,14.7-10.8"/>
		<path class="st3" d="M91.4,63.6L59.7,49.7"/>
	</g>
</g>
</svg>
