<?xml version="1.0" encoding="utf-8"?>
<!-- Generator: Adobe Illustrator 24.3.0, SVG Export Plug-In . SVG Version: 6.00 Build 0)  -->
<svg version="1.1" id="Layer_1" xmlns="http://www.w3.org/2000/svg" xmlns:xlink="http://www.w3.org/1999/xlink" x="0px" y="0px"
	 viewBox="0 0 212 212" style="enable-background:new 0 0 212 212;" xml:space="preserve">
<style type="text/css">
	.st0{fill:#DFC7F9;stroke:#2F2B24;stroke-width:2;stroke-linejoin:bevel;}
	.st1{fill:none;stroke:#2F2B24;stroke-width:2;stroke-linejoin:bevel;}
	.st2{fill:none;stroke:#2F2B23;stroke-width:2;stroke-linecap:square;}
</style>
<path class="st0" d="M106.1,63L6,120.6l100.1,57.7l100.1-57.7L106.1,63z"/>
<g>
	<image style="overflow:visible;" width="228" height="162" xlink:href="2568F9B4.png"  transform="matrix(1 0 0 1 -8 36)">
	</image>
</g>
<path class="st0" d="M106.1,34L6,91.7l100.1,57.7l100.1-57.7L106.1,34z"/>
<path class="st1" d="M6.8,91.7v28.8"/>
<path class="st1" d="M106.1,149.3v28.8"/>
<path class="st1" d="M205.5,91.8v28.8"/>
<path class="st2" d="M129.7,106.6c-13.6,7.8-35.6,7.8-49.2,0c-13.6-7.8-13.6-20.6,0-28.4c13.6-7.8,35.6-7.8,49.2,0 M117.4,99.5
	c-6.8,3.9-17.8,3.9-24.6,0c-6.8-3.9-6.8-10.3,0-14.2c6.8-3.9,17.8-3.9,24.6,0 M124.8,92.4l7.4-4.3H147l-1.9,3.2
	c-0.2,0.4-0.3,0.6-0.4,0.8c0,0.2,0,0.3,0,0.5c0,0.2,0.1,0.4,0.4,0.8l1.9,3.2h-14.8L124.8,92.4z M124.8,92.4h-19.7"/>
</svg>
