<?xml version="1.0" encoding="utf-8"?>
<!-- Generator: Adobe Illustrator 24.3.0, SVG Export Plug-In . SVG Version: 6.00 Build 0)  -->
<svg version="1.1" id="Layer_1" xmlns="http://www.w3.org/2000/svg" xmlns:xlink="http://www.w3.org/1999/xlink" x="0px" y="0px"
	 viewBox="0 0 212 212" style="enable-background:new 0 0 212 212;" xml:space="preserve">
<style type="text/css">
	.st0{fill:#DFC7F9;stroke:#2F2B24;stroke-width:2;stroke-linejoin:bevel;}
	.st1{fill:none;stroke:#2F2B24;stroke-width:2;stroke-linejoin:bevel;}
	.st2{fill:none;stroke:#2F2B23;stroke-width:2;stroke-linecap:round;}
</style>
<path class="st0" d="M106.1,63L6,120.6l100.1,57.7l100.1-57.7L106.1,63z"/>
<g>
	<image style="overflow:visible;" width="228" height="162" xlink:href="DF774DFF.png"  transform="matrix(1 0 0 1 -8 36)">
	</image>
</g>
<path class="st0" d="M106.1,34L6,91.7l100.1,57.7l100.1-57.7L106.1,34z"/>
<path class="st1" d="M6.8,91.7v28.8"/>
<path class="st1" d="M106.1,149.3v28.8"/>
<path class="st1" d="M205.5,91.8v28.8"/>
<path class="st2" d="M130.8,77.9c-0.6,7.4-5.9,14.5-14.9,19.8c-9.4,5.1-21.7,8.1-34.6,8.5 M130.8,77.9c-13,0.3-25.3,3.4-34.6,8.5
	c-9,5.3-14.3,12.4-14.9,19.8 M130.8,77.9c-13.7-7.8-35.8-7.8-49.5,0c-13.7,7.8-13.7,20.5,0,28.3 M130.8,77.9
	c13.7,7.8,13.7,20.5,0,28.3c-13.7,7.8-35.8,7.8-49.5,0 M89.9,74.3l47,26.9 M75.1,82.8l47,26.9"/>
</svg>
